<svg xmlns="http://www.w3.org/2000/svg" xmlns:xlink="http://www.w3.org/1999/xlink" viewBox="0 0 528.97 528.97"><defs><style>.cls-1{opacity:0.2;}.cls-2{fill:url(#未命名漸層_17);}.cls-3{fill:url(#未命名漸層_17-2);}.cls-4{fill:url(#未命名漸層_17-3);}.cls-5{fill:url(#未命名漸層_17-4);}.cls-6{fill:url(#未命名漸層_17-5);}</style><linearGradient id="未命名漸層_17" y1="264.49" x2="528.97" y2="264.49" gradientUnits="userSpaceOnUse"><stop offset="0" stop-color="#a9deff"/><stop offset="1" stop-color="#ffc5d4"/></linearGradient><linearGradient id="未命名漸層_17-2" x1="50.5" y1="264.49" x2="478.47" y2="264.49" xlink:href="#未命名漸層_17"/><linearGradient id="未命名漸層_17-3" x1="101" y1="264.49" x2="427.97" y2="264.49" xlink:href="#未命名漸層_17"/><linearGradient id="未命名漸層_17-4" x1="151.5" y1="264.49" x2="377.47" y2="264.49" xlink:href="#未命名漸層_17"/><linearGradient id="未命名漸層_17-5" x1="202" y1="264.49" x2="326.97" y2="264.49" xlink:href="#未命名漸層_17"/></defs><g id="圖層_2" data-name="圖層 2"><g id="bg"><g class="cls-1"><path class="cls-2" d="M264.49,20a244.56,244.56,0,0,1,95.16,469.77A244.56,244.56,0,0,1,169.33,39.2,243,243,0,0,1,264.49,20m0-20C118.41,0,0,118.41,0,264.49S118.41,529,264.49,529,529,410.56,529,264.49,410.56,0,264.49,0Z"/><path class="cls-3" d="M264.49,68A195.77,195.77,0,1,1,188,83.43,195.23,195.23,0,0,1,264.49,68m0-17.5c-118.18,0-214,95.81-214,214s95.81,214,214,214,214-95.8,214-214-95.8-214-214-214Z"/><path class="cls-4" d="M264.49,116a148.48,148.48,0,1,1-105,43.49,147.52,147.52,0,0,1,105-43.49m0-15A163.49,163.49,0,1,0,428,264.49,163.49,163.49,0,0,0,264.49,101Z"/><path class="cls-5" d="M264.49,164A100.49,100.49,0,1,1,164,264.49,100.6,100.6,0,0,1,264.49,164m0-12.5a113,113,0,1,0,113,113,113,113,0,0,0-113-113Z"/><path class="cls-6" d="M264.49,212A52.49,52.49,0,1,1,212,264.49,52.54,52.54,0,0,1,264.49,212m0-10A62.49,62.49,0,1,0,327,264.49,62.49,62.49,0,0,0,264.49,202Z"/></g></g></g></svg>