<svg xmlns="http://www.w3.org/2000/svg" viewBox="0 0 632 632"><defs><style>.cls-1{opacity:0.2;}.cls-2{fill:#fff;}.cls-3{fill:none;stroke:#fff;stroke-miterlimit:10;stroke-width:2px;}</style></defs><g id="圖層_2" data-name="圖層 2"><g id="aritcle"><g class="cls-1"><path class="cls-2" d="M316,2A314.09,314.09,0,0,1,438.22,605.33,314.09,314.09,0,0,1,193.78,26.67,312.07,312.07,0,0,1,316,2m0-2C141.48,0,0,141.48,0,316S141.48,632,316,632,632,490.52,632,316,490.52,0,316,0Z"/><path class="cls-3" d="M290.87,31.69c157-13.88,295.56,102.16,309.44,259.18"/><path class="cls-3" d="M341.13,600.31c-157,13.88-295.56-102.16-309.44-259.18"/><path class="cls-3" d="M293.56,62.15c140.2-12.39,263.9,91.22,276.29,231.41"/><path class="cls-3" d="M338.44,569.85c-140.2,12.39-263.9-91.22-276.29-231.41"/><path class="cls-3" d="M296.26,92.61c123.37-10.9,232.23,80.27,243.13,203.65"/><path class="cls-3" d="M335.74,539.39c-123.37,10.9-232.23-80.27-243.13-203.65"/><path class="cls-3" d="M299,123.07c106.55-9.42,200.56,69.33,210,175.88"/><path class="cls-3" d="M333.05,508.93c-106.55,9.42-200.56-69.33-210-175.88"/><path class="cls-3" d="M301.64,153.53A163.1,163.1,0,0,1,478.47,301.64"/><path class="cls-3" d="M330.36,478.47A163.1,163.1,0,0,1,153.53,330.36"/><path class="cls-3" d="M304.33,184A132.53,132.53,0,0,1,448,304.33"/><path class="cls-3" d="M327.67,448A132.53,132.53,0,0,1,184,327.67"/><path class="cls-3" d="M307,214.45A102,102,0,0,1,417.55,307"/><path class="cls-3" d="M325,417.55A102,102,0,0,1,214.45,325"/><path class="cls-3" d="M309.72,244.92a71.35,71.35,0,0,1,77.36,64.8"/><path class="cls-3" d="M322.28,387.08a71.35,71.35,0,0,1-77.36-64.8"/><path class="cls-3" d="M312.41,275.38a40.76,40.76,0,0,1,44.21,37"/><path class="cls-3" d="M319.59,356.62a40.76,40.76,0,0,1-44.21-37"/></g></g></g></svg>