<svg xmlns="http://www.w3.org/2000/svg" viewBox="0 0 151.9 181.48">
<defs>
    <style>.cls-1,.cls-9{fill:#a9deff;}.cls-2,.cls-3{fill:#ffa6b9;}.cls-2,.cls-4{opacity:0.2;}.cls-4,.cls-8{fill:#ffc5d4;}.cls-5,.cls-6,.cls-7{fill:#d3eeff;}.cls-5{opacity:0.3;}.cls-6,.cls-9{opacity:0.5;}</style>
</defs>
<g id="cover" data-name="cover">
    <g id="title">
        <rect class="cls-1 we1" x="18.66" y="-2.24" width="10" height="56.74" transform="translate(-11.54 24.24) rotate(-44.77)"/>
        <rect class="cls-1 we2" x="-4.71" y="21.13" width="56.74" height="10" transform="translate(-11.54 24.25) rotate(-44.77)"/>
        <polygon class="cls-1 we3" points="44.54 118.05 34.54 118.01 34.73 69.24 2.71 69.11 2.75 59.11 39.77 59.26 44.76 64.28 44.54 118.05"/>
        <rect class="cls-1 we4" x="60.07" y="59.38" width="87.24" height="10"/>
        <path class="cls-3 yun1" d="M84.57,118A24.38,24.38,0,0,1,60.21,93.71l-.08-15,10,0,.08,15A14.38,14.38,0,0,0,84.57,108h.07a14.38,14.38,0,0,0,14.3-14.43l-.08-15,10,0,.08,15A24.39,24.39,0,0,1,84.69,118Z"/>
        <polygon class="cls-3 yun2" points="89.14 181.34 81.32 175.11 95.1 157.81 64.99 157.81 61.08 149.7 81.32 124.28 89.14 130.51 75.36 147.81 105.48 147.81 109.39 155.93 89.14 181.34"/>
    </g>
    <g id="logo_head">
        <g id="man">
            <path class="cls-7 m-head" d="M98.72,44.54v-.12a117.81,117.81,0,0,1,0-12.78L85.8,24.1l-.07.13-.12-.05.07-.14L85.57,24h0l0,0h0c-.63-.26-1.31-.55-2-.86l-.44-.19-.41-.18-1.06-.48,0,0c-5.17-2.38-11.25-5.57-14.08-8l-.19-.17-.32-.3a24,24,0,0,1,6.55-6.89c6.19-4.2,13.51-4.24,21.74-.13a24,24,0,0,1,7.63,5.75A28.49,28.49,0,0,1,104.8,9a28.79,28.79,0,0,0-7.86-5.6C85.08-2.51,76.54.36,71.46,3.81A27.48,27.48,0,0,0,63.6,12.2l-14,1.15h0a1.82,1.82,0,0,0-1.44.89A5.91,5.91,0,0,0,48,19.7c1.24,2.47,4.36,4,9.22,4.67.16.21.32.41.48.64a10.9,10.9,0,0,0,5.42,3.74c-4.64,5.37-6.66,9.64-5.1,11.38a4.11,4.11,0,0,0,3.73,1.41,1.88,1.88,0,0,1,1.34.22l1.61-2.49a4.77,4.77,0,0,0-3.11-.69c-.65,0-.88.05-1.22-.28.11-1.16,3.13-5.58,6-8.77a28.18,28.18,0,0,0,4.23.3,46.64,46.64,0,0,0,7.84-.73c1.77,1.81,3.46,4,3.6,4.62,0,.39-.21,2-.39,3.33-1,7-1.38,10.71,1.17,11.5l2.38-1.47c.3-1.88,1.78-7.57,4.52-9,1.81-1,5.48-.79,6.63.67.75,1,0,2.9-1.95,5.21a11.88,11.88,0,0,1-4.27,1.31l.42,3.68a16.11,16.11,0,0,0,4.33-1.12L96.32,50l1.9.77A7.43,7.43,0,0,0,101,49.34,7.49,7.49,0,0,1,98.72,44.54ZM60.64,22.81c-.33-.45-.66-.88-1-1.29l0-.05-1.12-1.38-.37-.42-.7-.8-.39-.42-.63-.66-.36-.36c-.23-.23-.45-.45-.68-.65l-.18-.18,8.71-.7h0c.18.2.39.4.6.6l0,0c3.27,3.08,9.89,6.47,14.64,8.68C72.78,26.48,63.83,27.12,60.64,22.81Z"/>
            <path class="cls-7 m-eyes" d="M70.52,30.61a1.87,1.87,0,1,0,1.87,1.86A1.86,1.86,0,0,0,70.52,30.61Z"/>
            <path class="cls-7 m-mouth" d="M62,44.91l0,.11v3a12.51,12.51,0,0,0,3,.4,7.18,7.18,0,0,0,4.29-1.25l-1.75-2.4C65.84,46,62.94,45.28,62,44.91Z"/>
            <ellipse class="cls-5 m-cheek" cx="64.36" cy="35.85" rx="2.02" ry="8.71" transform="translate(14.84 90.39) rotate(-76.88)"/>
            <path class="cls-6 m-earring" d="M89.09,49.56l.14.09a1,1,0,0,1-.06.15,1.16,1.16,0,0,1-1.23.63,2.12,2.12,0,0,1-1.62-1.88c-.13-1.31,1.45-3.21,2.86-1.61,0,0-.38,0-.6.05-.63.07-.73,1-.73,1.47s.17,1.13.62,1.24S89.09,49.56,89.09,49.56Z"/>
        </g>
        <g id="woman">
            <path class="cls-8 f-head" d="M141.6,5.65c-3.74-4.08-8.11-5.73-12.68-4.82A22.93,22.93,0,0,0,117.69.62c-13.34,3.73-19.22,18-18,43.76v.09a6.47,6.47,0,0,0,2.56,4.62c4.44,3.42,13.13,2.14,14.11,2l5.63-.91-5-2.76c-.12-.06-10.22-5.91-5.65-21.95,3.28.34,8.8.84,13.21.84a17.72,17.72,0,0,0,6-.68l1.13-1.5,0-.08,1,1.93a48.92,48.92,0,0,0,4.95.1c.16.64.32,1.31.47,2l.63,2.86,2.4-1.67a1.5,1.5,0,0,1,.9.1,2.6,2.6,0,0,1,1.47,1.44,6.62,6.62,0,0,1-.37,4.42,5.11,5.11,0,0,1-2.55,2.86l-1.2.49,0,1.29c-.07,3.15-1.35,6-4,8.83l-2.31,2.47,3.29.79a12.35,12.35,0,0,0,2.77.3c4.05,0,9.53-1.82,11.89-8.82C153.64,35.68,150.39,15.23,141.6,5.65Z"/>
            <path class="cls-8 f-eyebrow" d="M111.29,27.63l.43.9a10.48,10.48,0,0,1,6.37-.54l.25-1A11.29,11.29,0,0,0,111.29,27.63Z"/>
            <path class="cls-8 f-eyebrow" d="M135.31,29.54l.76-.65c-2.18-2.52-7.64-1.8-7.87-1.77l.13,1S133.48,27.43,135.31,29.54Z"/>
            <path class="cls-8 f-eyes" d="M117,30.15a2,2,0,1,0,1.06,2.59A2,2,0,0,0,117,30.15Z"/>
            <path class="cls-8 f-eyes" d="M129.39,33.84a2,2,0,1,0-1.06-2.59A2,2,0,0,0,129.39,33.84Z"/>
            <path class="cls-8 f-nose" d="M120.36,41.12a4.1,4.1,0,0,0,3.44,1.28,14.53,14.53,0,0,0,3.47-.48l-.58-2.29c-2,.52-4.12.5-4.4.13,0,0-.12-.45.71-1.71,1.54-2.33,1.36-6.27,1.33-6.71l-2.36.14c.06,1,0,3.85-.94,5.27C119.82,38.58,119.6,40.05,120.36,41.12Z"/>
            <path class="cls-8 f-mouth" d="M131.17,42.81c-2,2.74-6.28,1.38-6.42,1.33v2.45a12.62,12.62,0,0,0,1.34.23c2,.23,5.08,0,7-2.63Z"/>
            <ellipse class="cls-4 f-cheek" cx="123.19" cy="36.34" rx="9.89" ry="1.85"/>
        </g>
    </g>
    <path class="cls-2 breast" d="M123.37,118A24.39,24.39,0,0,1,99,93.71l-.07-15,10,0,.07,15A14.39,14.39,0,0,0,123.38,108h.07a14.37,14.37,0,0,0,14.29-14.43l-.07-15,10,0,.07,15A24.38,24.38,0,0,1,123.5,118Z"/>
    <circle class="cls-2 nipple" cx="123.34" cy="95.71" r="4.79"/>
    <path class="cls-9 turtlehead" d="M9.72,165.53,23,173.18a14.63,14.63,0,0,0,22-12.68V145.21a14.63,14.63,0,0,0-22-12.68L9.72,140.17A14.64,14.64,0,0,0,9.72,165.53Z"/>
    <circle class="cls-9 egg" cx="135.56" cy="136.23" r="11.93"/>
    <circle class="cls-9 egg" cx="135.56" cy="169.55" r="11.93"/>
</g>
</svg>