<svg xmlns="http://www.w3.org/2000/svg" viewBox="0 0 96.97 96.97"><defs><style>.cls-1,.cls-2{fill:#ffa6b9;}.cls-1{opacity:0.2;}.cls-3{fill:none;}</style></defs><g id="圖層_2" data-name="圖層 2"><g id="圖層_7" data-name="圖層 7"><ellipse class="cls-1" cx="44.65" cy="63.99" rx="15.03" ry="2.8"/><circle class="cls-2" cx="34.07" cy="57.36" r="3.01"/><circle class="cls-2" cx="55.22" cy="57.41" r="3.01"/><path class="cls-2" d="M45.56,73.2c-2.07,0-4.15-.44-5.22-1.94s-.82-3.87,1-6.64c1.43-2.17,1.52-6.52,1.44-8l3.58-.2c0,.67.31,6.64-2,10.19-1.26,1.91-1.08,2.58-1.08,2.59.42.57,3.59.6,6.68-.19l.89,3.48A22.55,22.55,0,0,1,45.56,73.2Z"/><path class="cls-2" d="M71,15.76l-.32-.3q-.8-.72-1.59-1.35l-.31-.22c-.52-.4-1.05-.78-1.59-1.12l-.13-.09c-.57-.35-1.14-.67-1.72-1L65,11.55a17.13,17.13,0,0,0-1.72-.74l-.28-.1c-.55-.19-1.11-.36-1.67-.5l-.23-.06a18.13,18.13,0,0,0-1.79-.32l-.39,0a15.74,15.74,0,0,0-1.82-.11h-.28c-.46,0-.92,0-1.38.07L55,9.8c-.55.06-1.1.14-1.65.25l-.62-.16-.21-.05L52,9.71l-.28-.06-.75-.15-.21,0-1.07-.19-.29,0-.9-.13-.41,0L47.09,9l-.37,0q-.67-.06-1.38-.09h-.21c-.4,0-.82,0-1.24,0h-.44l-1.28,0-.39,0c-.54,0-1.08.07-1.63.14l-.36,0c-.45.05-.9.13-1.35.21L38,9.34c-.57.11-1.13.24-1.69.39C16,15.39,7.08,37.13,9,76.2v.14a9.87,9.87,0,0,0,3.9,7,11.58,11.58,0,0,0,1.42.93c.16.1.34.17.51.26.34.18.69.35,1,.51l.66.25c.33.12.66.25,1,.35s.48.15.72.21.68.19,1,.26l.75.16,1,.19.76.11,1,.12.75.07,1,.07.7,0,1.08,0h2.06l.56,0,.78,0,.52,0,.7,0,.46,0,.62-.06.38,0,.52-.07.29,0,.44-.06.17,0,.38-.06L42.86,85,35.28,80.8c-.18-.1-15.53-9-8.59-33.35,5,.52,13.37,1.27,20.08,1.27,4,0,7.47-.27,9.14-1l1.72-2.27,0-.13,1.49,2.95,2,.1.48,0,1.58,0h1.65l1.84,0c.24,1,.48,2,.72,3.07l.94,4.35L72,53.26a.46.46,0,0,1,.16,0h.26l.27,0,.15,0a3.06,3.06,0,0,1,.53.15,4,4,0,0,1,2.23,2.18c.56,1.28.5,4.14-.56,6.72a7.75,7.75,0,0,1-3.87,4.35l-1.82.74,0,2c-.11,4.77-2.06,9-6.14,13.4l-3.5,3.76,5,1.19a17.91,17.91,0,0,0,4.21.47c6.15,0,14.48-2.77,18.06-13.4,4-11.79-1-42.86-14.31-57.41C72.08,16.8,71.54,16.27,71,15.76Z"/><path class="cls-2" d="M27.21,52.13l-.64-1.37a17.14,17.14,0,0,1,10.71-.93l-.39,1.47A15.89,15.89,0,0,0,27.21,52.13Z"/><path class="cls-2" d="M63.05,53.66c-2.77-3.19-10.52-2.18-10.6-2.17L52.24,50c.36,0,8.65-1.13,12,2.69Z"/><path class="cls-2" d="M56.76,73.82c-3,4.17-9.54,2.09-9.75,2v3.72a16.65,16.65,0,0,0,2,.35c3.09.35,7.71,0,10.62-4Z"/><rect class="cls-3" width="96.97" height="96.97"/></g></g></svg>