<svg xmlns="http://www.w3.org/2000/svg" viewBox="0 0 96.97 96.97"><defs><style>.cls-1,.cls-2,.cls-3{fill:#a9deff;}.cls-1{opacity:0.2;}.cls-3{opacity:0.5;}.cls-4{fill:none;}</style></defs><g id="圖層_2" data-name="圖層 2"><g id="圖層_7" data-name="圖層 7"><ellipse class="cls-1" cx="25.97" cy="64.48" rx="3.08" ry="13.31" transform="translate(-42.72 75.14) rotate(-76.88)"/><path class="cls-2" d="M75.77,14.93c-18.13-9.08-31.19-4.69-38.94.58a41.91,41.91,0,0,0-12,12.83L3.37,30.09h0a2.86,2.86,0,0,0-2.21,1.39A9.09,9.09,0,0,0,.89,39.8C2.8,43.59,7.56,46,15,47c.24.3.48.62.72,1A16.71,16.71,0,0,0,24,53.64C16.92,61.85,13.84,68.37,16.21,71a6.32,6.32,0,0,0,5.71,2.16,2.92,2.92,0,0,1,2,.34l2.45-3.82a7.23,7.23,0,0,0-4.75-1c-1,0-1.35.07-1.87-.43C20,66.46,24.59,59.7,29,54.83a43.09,43.09,0,0,0,6.46.46,72.16,72.16,0,0,0,12-1.12c2.71,2.77,5.28,6.11,5.51,7.06,0,.61-.32,3.1-.6,5.1-1.51,10.72-2.12,16.37,1.78,17.58l3.64-2.25c.46-2.88,2.72-11.57,6.92-13.77,2.76-1.45,8.38-1.21,10.12,1,1.16,1.47,0,4.43-3,8a18.07,18.07,0,0,1-6.52,2L66,84.5a24.71,24.71,0,0,0,6.6-1.71l2.26,3.32,2.91,1.18c.43-.09,10-2.25,12.22-18.14l1.41-.38a41.52,41.52,0,0,0,2.49-5.62C97.54,53.22,103.14,28.62,75.77,14.93ZM20.29,44.56c-.51-.69-1-1.35-1.5-2l-.05-.06h0q-.7-.9-1.38-1.71c-.09-.1-.17-.21-.25-.31-.44-.52-.87-1-1.29-1.49l-.19-.21c-.41-.46-.82-.91-1.21-1.32l-.06-.06c-.41-.43-.8-.83-1.19-1.2L13,36c-.34-.33-.67-.65-1-.94L25.28,34h0c.27.3.58.61.9.92l.06.05c5,4.71,15.11,9.89,22.37,13.26C38.84,50.16,25.16,51.15,20.29,44.56ZM88.55,61.19h0c-.31.83-.6,1.56-.88,2.2L58.75,46.53l-.18-.1-.18-.08h0l-.07,0h0c-1-.4-2-.84-3-1.3l-.73-.32L54,44.44l-1.65-.75,0,0C44.4,40,35.09,35.16,30.77,31.44l-.3-.27L30,30.72A36.39,36.39,0,0,1,40,20.19c9.46-6.43,20.64-6.49,33.23-.2C95.67,31.22,92.46,50.62,88.55,61.19Z"/><path class="cls-2" d="M35.39,56.48a2.85,2.85,0,1,0,2.85,2.85A2.85,2.85,0,0,0,35.39,56.48Z"/><path class="cls-3" d="M62.83,85.66c-.7-.16-.95-1.26-.95-1.9S62,81.63,63,81.52c.34,0,.91-.08.91-.08-2.16-2.43-4.57.46-4.37,2.47A3.29,3.29,0,0,0,62,86.78a1.77,1.77,0,0,0,1.89-1,.69.69,0,0,0,.09-.22l-.21-.14S63.64,85.86,62.83,85.66Z"/><path class="cls-2" d="M22.31,78.35l-.06.16v4.54a18.9,18.9,0,0,0,4.62.62,11,11,0,0,0,6.56-1.92l-2.67-3.66C28.23,79.94,23.8,78.9,22.31,78.35Z"/><rect class="cls-4" width="96.97" height="96.97"/></g></g></svg>