<svg xmlns="http://www.w3.org/2000/svg" viewBox="0 0 173.78 86.89">
<defs>
    <style>.cls-1,.cls-2,.cls-3{fill:#a9deff;}.cls-1,.cls-4{opacity:0.2;}.cls-2{opacity:0.5;}.cls-4,.cls-5{fill:#ffa6b9;}</style>
</defs>
<g id="logo_head" data-name="logo_head">
    <g id="man">
		<path class="cls-3 m-head" d="M85.53,74.05l0-.2a198.2,198.2,0,0,1,0-21.16L63.89,40.07l-.12.21-.2-.09.12-.23-.19-.09h0l-.07,0h0c-1.22-.51-2.52-1.07-3.87-1.67l-.16-.07-.5-.22C49.5,33.67,37.42,27.46,32.76,23l0,0-.12-.13a39.64,39.64,0,0,1,10.9-11.45c10.29-7,22.45-7.07,36.14-.22a39.6,39.6,0,0,1,12.8,9.7,47.16,47.16,0,0,1,3.15-5.77A47.6,47.6,0,0,0,82.4,5.7C62.69-4.17,48.49.6,40.05,6.33A45.65,45.65,0,0,0,27,20.29L3.67,22.19h0a3.05,3.05,0,0,0-2.4,1.5A9.84,9.84,0,0,0,1,32.75c2.08,4.13,7.25,6.74,15.36,7.8.25.33.51.67.77,1a18.22,18.22,0,0,0,9,6.23c-7.71,8.92-11.06,16-8.48,18.91a6.84,6.84,0,0,0,6.2,2.34,3.2,3.2,0,0,1,2.24.37l2.67-4.15a8,8,0,0,0-5.17-1.14c-1.08.06-1.47.08-2-.46.18-1.94,5.2-9.29,10-14.58a47.94,47.94,0,0,0,7,.5,78,78,0,0,0,13-1.22c2.94,3,5.74,6.64,6,7.68,0,.66-.35,3.37-.65,5.54-1.64,11.66-2.3,17.8,1.94,19.12l4-2.45c.5-3.12,3-12.58,7.52-15,3-1.58,9.11-1.31,11,1.11,1.26,1.6,0,4.82-3.23,8.66A19.52,19.52,0,0,1,71,75.24l.7,6.12a26.92,26.92,0,0,0,7.19-1.85l2.45,3.6,3.16,1.29a12.66,12.66,0,0,0,4.81-2.47A12.2,12.2,0,0,1,85.53,74.05ZM22.06,37.93c-.55-.76-1.1-1.47-1.63-2.15l-.05-.08-.95-1.18-.32-.39-.6-.72L18.14,33l-.53-.61-.36-.42-.55-.61L16.38,31c-.26-.29-.53-.57-.78-.84l-.32-.33-.49-.5c-.12-.11-.23-.23-.34-.34L14,28.54l-.32-.32-.47-.43L13,27.6l14.47-1.17h0c.3.33.64.67,1,1l.05.05C34,32.61,45,38.24,52.88,41.91,42.24,44,27.36,45.09,22.06,37.93Z"/>
		<path class="cls-3 m-eyes" d="M38.49,50.89a3.1,3.1,0,1,0,3.1,3.1A3.1,3.1,0,0,0,38.49,50.89Z"/>
		<path class="cls-3 m-mouth" d="M24.26,74.67l-.07.17v5a20.48,20.48,0,0,0,5,.67,12,12,0,0,0,7.14-2.09l-2.91-4C30.7,76.4,25.88,75.28,24.26,74.67Z"/>
		<ellipse class="cls-1 m-cheek" cx="28.25" cy="59.6" rx="3.35" ry="14.47" transform="translate(-36.21 73.57) rotate(-76.88)"/>
		<path class="cls-2 m-earring" d="M69.36,82.4l.23.15a1,1,0,0,1-.1.24,1.94,1.94,0,0,1-2,1.06,3.57,3.57,0,0,1-2.69-3.13c-.21-2.18,2.41-5.33,4.76-2.68,0,0-.63,0-1,.08-1,.12-1.21,1.75-1.21,2.44s.27,1.89,1,2.07S69.36,82.4,69.36,82.4Z"/>
	</g>
	<g id="woman">
		<path class="cls-5 f-head" d="M156.65,9.39c-6.21-6.78-13.48-9.53-21.07-8C132.9.67,124.69-1.14,116.9,1,94.73,7.23,85,31,87,73.78v.16a10.81,10.81,0,0,0,4.27,7.68c7.37,5.69,21.83,3.55,23.46,3.29l9.36-1.51-8.3-4.59c-.19-.11-17-9.83-9.4-36.49,5.45.56,14.64,1.38,22,1.38,4.43,0,8.18-.29,10-1.13l1.88-2.48,0-.15,1.63,3.23c3.4.2,6.07.23,8.23.16.26,1.07.52,2.17.79,3.35l1,4.77,4-2.78a2.36,2.36,0,0,1,1.49.16,4.3,4.3,0,0,1,2.45,2.39c.61,1.39.54,4.53-.61,7.35a8.56,8.56,0,0,1-4.25,4.76l-2,.81,0,2.15c-.12,5.23-2.26,9.89-6.72,14.67l-3.83,4.11,5.46,1.31a20,20,0,0,0,4.61.51c6.73,0,15.85-3,19.77-14.66C176.67,59.32,171.27,25.32,156.65,9.39Z"/>
		<path class="cls-5 f-eyebrow" d="M107,47.44l-.7-1.5a18.76,18.76,0,0,1,11.72-1l-.42,1.61A17.49,17.49,0,0,0,107,47.44Z"/>
		<path class="cls-5 f-eyebrow" d="M146.2,49.11c-3-3.49-11.51-2.39-11.6-2.38l-.22-1.64c.38-.06,9.46-1.24,13.08,2.94Z"/>
		<circle class="cls-5 f-eye" cx="114.48" cy="53.16" r="3.3"/>
		<circle class="cls-5 f-eye" cx="137.63" cy="53.22" r="3.3"/>
		<path class="cls-5 f-nose" d="M127.06,70.49c-2.26,0-4.54-.48-5.71-2.12s-.9-4.23,1.1-7.27C124,58.73,124.12,54,124,52.33l3.92-.22c0,.73.34,7.27-2.22,11.15-1.38,2.1-1.18,2.83-1.18,2.84.47.62,3.94.65,7.32-.21l1,3.81A24.91,24.91,0,0,1,127.06,70.49Z"/>
		<path class="cls-5 f-mouth" d="M139.31,71.18c-3.28,4.56-10.43,2.29-10.67,2.21v4.07a22,22,0,0,0,2.24.39c3.38.38,8.44.05,11.62-4.37Z"/>
		<ellipse class="cls-4 f-cheek" cx="126.06" cy="60.42" rx="16.44" ry="3.07"/>
	</g>
</g>
</svg>